<svg viewBox="0 0 21 21" fill="none" xmlns="http://www.w3.org/2000/svg" class="icon-list atom-icon nav-category_icon" style="width: 1.3125rem; height: 1.3125rem;">
			<path fill-rule="evenodd" clip-rule="evenodd" d="M14.417 3.6a.75.75 0 00-.75-.75H3a.75.75 0 000 1.5h10.667a.75.75 0 00.75-.75zm0 6.4a.75.75 0 00-.75-.75H3a.75.75 0 000 1.5h10.667a.75.75 0 00.75-.75zm0 6.4a.75.75 0 00-.75-.75H3a.75.75 0 000 1.5h10.667a.75.75 0 00.75-.75zM18.25 2.75v1.7h-1.7v-1.7h1.7zm1.5-.217c0-.708-.575-1.283-1.283-1.283h-2.134c-.708 0-1.283.575-1.283 1.283v2.134c0 .708.575 1.283 1.283 1.283h2.134c.708 0 1.283-.575 1.283-1.283V2.533zm-1.5 6.617v1.7h-1.7v-1.7h1.7zm1.5-.217c0-.708-.575-1.283-1.283-1.283h-2.134c-.708 0-1.283.575-1.283 1.283v2.134c0 .708.575 1.283 1.283 1.283h2.134c.708 0 1.283-.575 1.283-1.283V8.933zm-1.5 6.617v1.7h-1.7v-1.7h1.7zm1.5-.217c0-.708-.575-1.283-1.283-1.283h-2.134c-.708 0-1.283.575-1.283 1.283v2.134c0 .708.575 1.283 1.283 1.283h2.134c.708 0 1.283-.575 1.283-1.283v-2.134z" fill="currentColor"></path>
		</svg>